<?xml version="1.0" encoding="utf-8"?>
<!-- Generator: Adobe Illustrator 18.1.1, SVG Export Plug-In . SVG Version: 6.00 Build 0)  -->
<svg version="1.1" id="Layer_1" xmlns="http://www.w3.org/2000/svg" xmlns:xlink="http://www.w3.org/1999/xlink" x="0px" y="0px"
	 viewBox="0 169.8 300 180.2" enable-background="new 0 169.8 300 180.2" xml:space="preserve">
<g>
	<polygon fill="#8E8E8D" points="0,169.8 49.5,201.5 49.5,267.4 98.9,290.5 98.9,349.8 0,291.5 	"/>
	<polygon fill="#1E1E1E" points="98.6,169.8 49.5,201.5 49.5,267.4 148.4,201.5 148.4,169.8 	"/>
	<polygon fill="#8E8E8D" points="197.8,169.8 250.5,201.5 250.5,267.4 148.4,201.5 148.4,169.8 	"/>
	<polygon fill="#FFFFFF" points="98.9,290.5 148.4,267.4 197.8,290.5 250.5,267.4 148.4,201.5 49.5,267.4 	"/>
	<polygon fill="#1E1E1E" points="98.9,349.8 98.9,290.5 148.4,267.4 148.4,349.8 	"/>
	<polygon fill="#8E8E8D" points="197.8,290.5 197.8,349.8 148.4,349.8 148.4,267.4 	"/>
	<polygon fill="#1E1E1E" points="250.5,267.4 250.5,203.1 300,169.8 300,290.5 197.8,349.8 197.8,290.5 	"/>
	<polygon fill="#FFFFFF" points="300,349.8 300,290.5 197.8,349.8 	"/>
	<polygon fill="#FFFFFF" points="197.8,169.8 300,169.8 250.5,203.1 	"/>
	<polygon fill="#FFFFFF" points="0,290.5 0,349.8 98.9,349.8 	"/>
	<polygon fill="#FFFFFF" points="0,169.8 98.6,169.8 49.5,201.5 	"/>
</g>
</svg>
